<?xml version="1.0" encoding="UTF-8" standalone="no"?>
<svg
   xmlns:dc="http://purl.org/dc/elements/1.1/"
   xmlns:cc="http://creativecommons.org/ns#"
   xmlns:rdf="http://www.w3.org/1999/02/22-rdf-syntax-ns#"
   xmlns:svg="http://www.w3.org/2000/svg"
   xmlns="http://www.w3.org/2000/svg"
   viewBox="0 0 1264.5573 610.67334"
   height="610.67334"
   width="1264.5573"
   xml:space="preserve"
   id="svg2"
   version="1.1"><metadata
     id="metadata8"><rdf:RDF><cc:Work
         rdf:about=""><dc:format>image/svg+xml</dc:format><dc:type
           rdf:resource="http://purl.org/dc/dcmitype/StillImage" /></cc:Work></rdf:RDF></metadata><defs
     id="defs6"><clipPath
       id="clipPath18"
       clipPathUnits="userSpaceOnUse"><path
         id="path16"
         d="M 0,458.005 H 948.418 V 0 H 0 Z" /></clipPath><clipPath
       id="clipPath26"
       clipPathUnits="userSpaceOnUse"><path
         id="path24"
         d="M 0,458.005 H 948.418 V -4.88281e-4 H 0 Z" /></clipPath><clipPath
       id="clipPath44"
       clipPathUnits="userSpaceOnUse"><path
         id="path42"
         d="M 0,458.005 H 948.418 V 0 H 0 Z" /></clipPath><clipPath
       id="clipPath52"
       clipPathUnits="userSpaceOnUse"><path
         id="path50"
         d="M 0,458.005 H 948.418 V -4.88281e-4 H 0 Z" /></clipPath><clipPath
       id="clipPath64"
       clipPathUnits="userSpaceOnUse"><path
         id="path62"
         d="m 0,229.002 h 948.418 v 0 z" /></clipPath><clipPath
       id="clipPath76"
       clipPathUnits="userSpaceOnUse"><path
         id="path74"
         d="m 414.344,458.005 v 0 -458.005488281 0 z" /></clipPath><clipPath
       id="clipPath138"
       clipPathUnits="userSpaceOnUse"><path
         id="path136"
         d="m 87.2695,458.005 v 0 -458.005488281 0 z" /></clipPath><clipPath
       id="clipPath150"
       clipPathUnits="userSpaceOnUse"><path
         id="path148"
         d="m 836.702,458.005 v 0 -458.005488281 0 z" /></clipPath></defs><g
     transform="matrix(1.3333333,0,0,-1.3333333,0,610.67333)"
     id="g10"><g
       id="g12"><g
         clip-path="url(#clipPath18)"
         id="g14"><g
           id="g20"><g
             id="g22" /><g
             id="g32"><g
               style="opacity:0"
               id="g30"
               clip-path="url(#clipPath26)"><path
                 id="path28"
                 style="fill:#ffffff;fill-opacity:1;fill-rule:nonzero;stroke:none"
                 d="M 948.418,0 H 0 v 458.005 h 948.418 z" /></g></g></g></g></g><g
       transform="translate(157.8149,229.0024)"
       id="g34"><path
         id="path36"
         style="fill:#de0073;fill-opacity:1;fill-rule:nonzero;stroke:none"
         d="M 0,0 71.187,71.186 35.915,106.458 -70.545,0 35.915,-106.459 71.187,-71.187 Z" /></g><g
       id="g38"><g
         clip-path="url(#clipPath44)"
         id="g40"><g
           id="g46"><g
             id="g48" /><g
             id="g56"><g
               style="opacity:0"
               id="g54"
               clip-path="url(#clipPath52)" /></g></g><g
           id="g58"><g
             id="g60" /><g
             id="g68"><g
               style="opacity:0"
               id="g66"
               clip-path="url(#clipPath64)" /></g></g><g
           id="g70"><g
             id="g72" /><g
             id="g80"><g
               style="opacity:0"
               id="g78"
               clip-path="url(#clipPath76)" /></g></g><g
           transform="translate(439.959,164.793)"
           id="g82"><path
             id="path84"
             style="fill:#635d63;fill-opacity:1;fill-rule:nonzero;stroke:none"
             d="m 0,0 h 14.619 v -12.998 c -2.909,-1.659 -8.057,-2.75 -13.111,-2.75 -11.882,0 -20.181,8.159 -20.181,19.843 0,11.774 8.266,19.996 20.101,19.996 4.894,0 10.024,-1.357 13.724,-3.631 l 1.414,-0.869 1.69,7.053 -0.72,0.438 c -4.22,2.57 -10.138,3.988 -16.667,3.988 -17.76,0 -27.343,-13.818 -27.343,-26.82 0,-13.328 9.501,-26.821 27.662,-26.821 8.351,0 15.613,1.991 20.451,5.606 l 0.463,0.348 V 6.589 L 0,6.589 Z" /></g><g
           transform="translate(504.373,180.3193)"
           id="g86"><path
             id="path88"
             style="fill:#635d63;fill-opacity:1;fill-rule:nonzero;stroke:none"
             d="M 0,0 C 0,-4.787 -3.963,-8.537 -9.022,-8.537 H -22.766 V 7.788 H -9.183 C -4.76,7.788 0,5.352 0,0 m 7.802,0.077 c 0,9.489 -8.299,14.611 -16.107,14.611 h -22.182 v -51.927 h 7.721 v 21.958 H -9.674 L 4.742,-37.239 h 9.477 l -15.742,23.281 c 5.561,2.203 9.325,7.759 9.325,14.035" /></g><g
           transform="translate(565.6885,168.9644)"
           id="g90"><path
             id="path92"
             style="fill:#635d63;fill-opacity:1;fill-rule:nonzero;stroke:none"
             d="m 0,0 c 0,-11.729 -7.525,-19.919 -18.3,-19.919 -10.774,0 -18.3,8.19 -18.3,19.919 0,11.729 7.526,19.92 18.3,19.92 C -7.525,19.92 0,11.729 0,0 m -18.3,26.899 c -15.125,0 -26.1,-11.247 -26.1,-26.743 0,-15.586 10.975,-26.899 26.1,-26.899 15.125,0 26.102,11.313 26.102,26.899 0,15.496 -10.977,26.743 -26.102,26.743" /></g><g
           transform="translate(583.958,143.0801)"
           id="g94"><path
             id="path96"
             style="fill:#635d63;fill-opacity:1;fill-rule:nonzero;stroke:none"
             d="M 0,0 H 36.459 V 6.819 H 7.723 v 15.139 h 23.85 v 6.823 H 7.723 v 16.324 h 27.621 v 6.822 L 0,51.927 Z" /></g><g
           transform="translate(639.3799,188.1074)"
           id="g98"><path
             id="path100"
             style="fill:#635d63;fill-opacity:1;fill-rule:nonzero;stroke:none"
             d="m 0,0 h 13.966 c 4.423,0 9.183,-2.437 9.183,-7.788 0,-4.787 -3.963,-8.537 -9.023,-8.537 L 0,-16.325 Z M 14.844,6.899 H -7.723 V -45.027 H 0 v 21.958 h 15.004 c 7.839,0 15.949,5.744 15.949,15.358 0,9.489 -8.299,14.61 -16.109,14.61" /></g><g
           transform="translate(157.8149,229.0024)"
           id="g102"><path
             id="path104"
             style="fill:#04296c;fill-opacity:1;fill-rule:nonzero;stroke:none"
             d="M 0,0 71.187,-71.187 142.374,-0.001 71.187,71.186 Z" /></g><g
           transform="translate(264.2749,335.4609)"
           id="g106"><path
             id="path108"
             style="fill:#bddb00;fill-opacity:1;fill-rule:nonzero;stroke:none"
             d="M 0,0 -35.273,-35.272 35.914,-106.46 -35.273,-177.646 0,-212.918 106.459,-106.46 Z" /></g><g
           transform="translate(648.4961,229.0024)"
           id="g110"><path
             id="path112"
             style="fill:#635d63;fill-opacity:1;fill-rule:nonzero;stroke:none"
             d="M 0,0 29.838,43.635 0,87.27 H 23.119 L 41.398,60.539 59.68,87.27 H 82.799 L 52.959,43.635 82.799,0 H 59.678 L 41.398,26.729 23.121,0 Z" /></g><g
           transform="translate(565.8223,228.0444)"
           id="g114"><path
             id="path116"
             style="fill:#635d63;fill-opacity:1;fill-rule:nonzero;stroke:none"
             d="M 0,0 V 88.228 H -20.516 V 40.081 l -44.32,48.147 H -81.934 V 0.958 h 20.381 L -61.547,55.044 -10.805,0 Z" /></g><g
           transform="translate(639.1816,229.0024)"
           id="g118"><path
             id="path120"
             style="fill:#635d63;fill-opacity:1;fill-rule:nonzero;stroke:none"
             d="M 0,0 V 17.372 H -35.332 V 34.881 H -2.063 V 52.662 H -35.332 V 69.897 H 0 V 87.27 H -55.146 V 0 Z" /></g><path
           id="path122"
           style="fill:#635d63;fill-opacity:1;fill-rule:nonzero;stroke:none"
           d="m 764.734,316.272 h -21.201 v -87.271 h 21.201 z" /><g
           transform="translate(838.127,255.2651)"
           id="g124"><path
             id="path126"
             style="fill:#635d63;fill-opacity:1;fill-rule:nonzero;stroke:none"
             d="m 0,0 c 0,15.457 -9.984,24.074 -26.674,28.724 -6.703,1.916 -10.394,4.241 -10.394,8.617 0,4.243 3.418,7.526 10.804,7.526 6.02,0 12.996,-2.463 16.551,-4.513 l 3.83,17.097 c -3.555,2.051 -11.9,4.923 -21.885,4.923 -18.877,0 -29.681,-11.625 -29.681,-26.125 0,-13.268 7.931,-22.707 25.031,-27.357 8.068,-2.19 11.217,-5.062 11.217,-10.122 0,-5.335 -4.789,-8.756 -12.311,-8.756 -8.756,0 -18.056,3.421 -25.17,8.343 l 2.051,-19.832 c 5.199,-3.147 14.637,-6.02 24.486,-6.02 C -10.943,-27.495 0,-16.825 0,0" /></g><g
           transform="translate(469.4883,229.0024)"
           id="g128"><path
             id="path130"
             style="fill:#635d63;fill-opacity:1;fill-rule:nonzero;stroke:none"
             d="M 0,0 V 17.372 H -35.332 V 34.881 H -2.061 V 52.662 H -35.332 V 69.897 H 0 V 87.27 H -55.145 V 0 Z" /></g><g
           id="g132"><g
             id="g134" /><g
             id="g142"><g
               style="opacity:0"
               id="g140"
               clip-path="url(#clipPath138)" /></g></g><g
           id="g144"><g
             id="g146" /><g
             id="g154"><g
               style="opacity:0"
               id="g152"
               clip-path="url(#clipPath150)" /></g></g></g></g></g></svg>