<?xml version="1.0" encoding="UTF-8" standalone="no"?>
<svg
   xmlns:dc="http://purl.org/dc/elements/1.1/"
   xmlns:cc="http://creativecommons.org/ns#"
   xmlns:rdf="http://www.w3.org/1999/02/22-rdf-syntax-ns#"
   xmlns:svg="http://www.w3.org/2000/svg"
   xmlns="http://www.w3.org/2000/svg"
   viewBox="0 0 512.45868 689.25732"
   height="689.25732"
   width="512.45868"
   xml:space="preserve"
   id="svg2"
   version="1.1"><metadata
     id="metadata8"><rdf:RDF><cc:Work
         rdf:about=""><dc:format>image/svg+xml</dc:format><dc:type
           rdf:resource="http://purl.org/dc/dcmitype/StillImage" /></cc:Work></rdf:RDF></metadata><defs
     id="defs6"><clipPath
       id="clipPath18"
       clipPathUnits="userSpaceOnUse"><path
         id="path16"
         d="M 0,516.943 H 384.344 V 0 H 0 Z" /></clipPath><clipPath
       id="clipPath26"
       clipPathUnits="userSpaceOnUse"><path
         id="path24"
         d="M 0,516.943 H 384.344 V 4.88281e-4 H 0 Z" /></clipPath><clipPath
       id="clipPath38"
       clipPathUnits="userSpaceOnUse"><path
         id="path36"
         d="M 0,516.943 H 384.344 V 4.88281e-4 H 0 Z" /></clipPath><clipPath
       id="clipPath52"
       clipPathUnits="userSpaceOnUse"><path
         id="path50"
         d="m 192.172,516.943 v 0 -516.942511719 0 z" /></clipPath><clipPath
       id="clipPath64"
       clipPathUnits="userSpaceOnUse"><path
         id="path62"
         d="m 314.487,516.943 v 0 -516.942511719 0 z" /></clipPath><clipPath
       id="clipPath76"
       clipPathUnits="userSpaceOnUse"><path
         id="path74"
         d="m 69.8569,516.943 v 0 -516.942511719 0 z" /></clipPath><clipPath
       id="clipPath102"
       clipPathUnits="userSpaceOnUse"><path
         id="path100"
         d="M 0,516.943 H 384.344 V 0 H 0 Z" /></clipPath></defs><g
     transform="matrix(1.3333333,0,0,-1.3333333,0,689.25733)"
     id="g10"><g
       id="g12"><g
         clip-path="url(#clipPath18)"
         id="g14"><g
           id="g20"><g
             id="g22" /><g
             id="g30"><g
               style="opacity:0"
               id="g28"
               clip-path="url(#clipPath26)" /></g></g><g
           id="g32"><g
             id="g34" /><g
             id="g44"><g
               style="opacity:0"
               id="g42"
               clip-path="url(#clipPath38)"><path
                 id="path40"
                 style="fill:#ffffff;fill-opacity:1;fill-rule:nonzero;stroke:none"
                 d="M 384.344,0 H 0 v 516.942 h 384.344 z" /></g></g></g><g
           id="g46"><g
             id="g48" /><g
             id="g56"><g
               style="opacity:0"
               id="g54"
               clip-path="url(#clipPath52)" /></g></g><g
           id="g58"><g
             id="g60" /><g
             id="g68"><g
               style="opacity:0"
               id="g66"
               clip-path="url(#clipPath64)" /></g></g><g
           id="g70"><g
             id="g72" /><g
             id="g80"><g
               style="opacity:0"
               id="g78"
               clip-path="url(#clipPath76)" /></g></g></g></g><g
       transform="translate(205.189,132.9185)"
       id="g82"><path
         id="path84"
         style="fill:#635d63;fill-opacity:1;fill-rule:nonzero;stroke:none"
         d="M 0,0 17.246,25.22 0,50.438 h 13.362 l 10.566,-15.45 10.564,15.45 H 47.855 L 30.608,25.22 47.855,0 H 34.492 L 23.928,15.447 13.362,0 Z" /></g><g
       transform="translate(157.4067,132.3638)"
       id="g86"><path
         id="path88"
         style="fill:#635d63;fill-opacity:1;fill-rule:nonzero;stroke:none"
         d="M 0,0 V 50.991 H -11.857 V 23.165 l -25.616,27.826 h -9.881 V 0.556 h 11.78 L -35.572,31.814 -6.244,0 Z" /></g><g
       transform="translate(199.8052,132.9185)"
       id="g90"><path
         id="path92"
         style="fill:#635d63;fill-opacity:1;fill-rule:nonzero;stroke:none"
         d="m 0,0 v 10.04 h -20.421 v 10.119 h 19.23 v 10.278 h -19.23 v 9.961 H 0 v 10.04 H -31.873 V 0 Z" /></g><path
       id="path94"
       style="fill:#635d63;fill-opacity:1;fill-rule:nonzero;stroke:none"
       d="m 272.372,183.355 h -12.256 v -50.438 h 12.256 z" /><g
       id="g96"><g
         clip-path="url(#clipPath102)"
         id="g98"><g
           transform="translate(314.7886,148.0967)"
           id="g104"><path
             id="path106"
             style="fill:#635d63;fill-opacity:1;fill-rule:nonzero;stroke:none"
             d="m 0,0 c 0,8.934 -5.772,13.915 -15.418,16.602 -3.873,1.107 -6.005,2.45 -6.005,4.981 0,2.451 1.975,4.349 6.244,4.349 3.479,0 7.511,-1.424 9.566,-2.61 l 2.215,9.883 c -2.058,1.185 -6.879,2.844 -12.652,2.844 -10.909,0 -17.153,-6.717 -17.153,-15.098 0,-7.668 4.585,-13.124 14.467,-15.813 4.662,-1.264 6.483,-2.925 6.483,-5.85 0,-3.081 -2.769,-5.059 -7.115,-5.059 -5.061,0 -10.437,1.978 -14.547,4.82 l 1.185,-11.462 c 3.004,-1.818 8.458,-3.477 14.15,-3.477 C -6.324,-15.89 0,-9.724 0,0" /></g><g
           transform="translate(101.7295,132.9185)"
           id="g108"><path
             id="path110"
             style="fill:#635d63;fill-opacity:1;fill-rule:nonzero;stroke:none"
             d="m 0,0 v 10.04 h -20.421 v 10.119 h 19.229 v 10.278 h -19.229 v 9.961 H 0 v 10.04 H -31.873 V 0 Z" /></g><g
           transform="translate(120.9849,324.771)"
           id="g112"><path
             id="path114"
             style="fill:#04296c;fill-opacity:1;fill-rule:nonzero;stroke:none"
             d="M 0,0 71.187,-71.187 142.374,-0.001 71.187,71.187 Z" /></g><g
           transform="translate(120.9849,324.771)"
           id="g116"><path
             id="path118"
             style="fill:#de0073;fill-opacity:1;fill-rule:nonzero;stroke:none"
             d="M 0,0 71.187,71.186 35.915,106.459 -70.545,0 35.915,-106.46 71.187,-71.187 Z" /></g><g
           transform="translate(227.4448,431.2305)"
           id="g120"><path
             id="path122"
             style="fill:#bddb00;fill-opacity:1;fill-rule:nonzero;stroke:none"
             d="M 0,0 -35.273,-35.272 35.914,-106.46 -35.272,-177.646 0,-212.919 106.459,-106.46 Z" /></g><g
           transform="translate(84.6621,95.6719)"
           id="g124"><path
             id="path126"
             style="fill:#635d63;fill-opacity:1;fill-rule:nonzero;stroke:none"
             d="m 0,0 h 8.449 v -7.512 c -1.681,-0.959 -4.656,-1.59 -7.578,-1.59 -6.867,0 -11.664,4.718 -11.664,11.47 0,6.803 4.777,11.557 11.618,11.557 2.829,0 5.794,-0.785 7.932,-2.098 l 0.818,-0.503 0.976,4.076 -0.416,0.252 c -2.439,1.487 -5.859,2.307 -9.634,2.307 -10.264,0 -15.803,-7.989 -15.803,-15.503 0,-7.703 5.491,-15.501 15.989,-15.501 4.826,0 9.022,1.151 11.819,3.241 l 0.267,0.199 V 3.809 L 0,3.809 Z" /></g><g
           transform="translate(121.8916,104.647)"
           id="g128"><path
             id="path130"
             style="fill:#635d63;fill-opacity:1;fill-rule:nonzero;stroke:none"
             d="m 0,0 c 0,-2.768 -2.29,-4.935 -5.215,-4.935 h -7.943 V 4.5 h 7.851 C -2.751,4.5 0,3.092 0,0 m 4.51,0.044 c 0,5.484 -4.797,8.444 -9.31,8.444 h -12.821 v -30.012 h 4.463 v 12.691 h 7.567 L 2.741,-21.524 H 8.218 L -0.88,-8.067 c 3.214,1.272 5.39,4.484 5.39,8.111" /></g><g
           transform="translate(157.3306,98.0825)"
           id="g132"><path
             id="path134"
             style="fill:#635d63;fill-opacity:1;fill-rule:nonzero;stroke:none"
             d="m 0,0 c 0,-6.778 -4.349,-11.513 -10.577,-11.513 -6.227,0 -10.577,4.735 -10.577,11.513 0,6.78 4.35,11.514 10.577,11.514 C -4.349,11.514 0,6.78 0,0 m -10.577,15.548 c -8.741,0 -15.085,-6.501 -15.085,-15.457 0,-9.009 6.344,-15.547 15.085,-15.547 8.743,0 15.086,6.538 15.086,15.547 0,8.956 -6.343,15.457 -15.086,15.457" /></g><g
           transform="translate(167.8901,83.1226)"
           id="g136"><path
             id="path138"
             style="fill:#635d63;fill-opacity:1;fill-rule:nonzero;stroke:none"
             d="M 0,0 H 21.073 V 3.942 H 4.463 v 8.749 h 13.786 v 3.944 H 4.463 v 9.435 h 15.965 v 3.943 H 0 Z" /></g><g
           transform="translate(199.9233,109.147)"
           id="g140"><path
             id="path142"
             style="fill:#635d63;fill-opacity:1;fill-rule:nonzero;stroke:none"
             d="m 0,0 h 8.072 c 2.556,0 5.307,-1.408 5.307,-4.5 0,-2.768 -2.29,-4.935 -5.214,-4.935 L 0,-9.435 Z M 8.58,3.988 H -4.464 V -26.024 H 0 v 12.691 h 8.672 c 4.531,0 9.218,3.319 9.218,8.877 0,5.484 -4.797,8.444 -9.31,8.444" /></g></g></g></g></svg>